<svg width="40" height="40" viewBox="0 0 40 40" fill="none" xmlns="http://www.w3.org/2000/svg">
<path fill-rule="evenodd" clip-rule="evenodd" d="M20 30C25.5228 30 30 25.5228 30 20C30 14.4771 25.5228 10 20 10C14.4771 10 10 14.4771 10 20C10 25.5228 14.4771 30 20 30ZM20 26.6667C23.6818 26.6667 26.6667 23.6818 26.6667 20C26.6667 16.3181 23.6818 13.3333 20 13.3333C16.3181 13.3333 13.3333 16.3181 13.3333 20C13.3333 23.6818 16.3181 26.6667 20 26.6667Z" fill="white"/>
<path d="M30.0007 8.33301C29.0802 8.33301 28.334 9.07921 28.334 9.99967C28.334 10.9201 29.0802 11.6663 30.0007 11.6663C30.9212 11.6663 31.6673 10.9201 31.6673 9.99967C31.6673 9.07921 30.9212 8.33301 30.0007 8.33301Z" fill="white"/>
<path fill-rule="evenodd" clip-rule="evenodd" d="M2.75595 7.12709C1.66602 9.26621 1.66602 12.0665 1.66602 17.667V22.3337C1.66602 27.9342 1.66602 30.7345 2.75595 32.8735C3.71468 34.7552 5.24448 36.285 7.12612 37.2437C9.26523 38.3337 12.0655 38.3337 17.666 38.3337H22.3327C27.9332 38.3337 30.7335 38.3337 32.8725 37.2437C34.7542 36.285 36.284 34.7552 37.2427 32.8735C38.3327 30.7345 38.3327 27.9342 38.3327 22.3337V17.667C38.3327 12.0665 38.3327 9.26621 37.2427 7.12709C36.284 5.24546 34.7542 3.71566 32.8725 2.75693C30.7335 1.66699 27.9332 1.66699 22.3327 1.66699H17.666C12.0655 1.66699 9.26523 1.66699 7.12612 2.75693C5.24448 3.71566 3.71468 5.24546 2.75595 7.12709ZM22.3327 5.00033H17.666C14.8108 5.00033 12.8698 5.00293 11.3695 5.12549C9.90808 5.24489 9.16075 5.46131 8.63942 5.72694C7.385 6.36611 6.36513 7.38598 5.72597 8.64039C5.46033 9.16173 5.24392 9.90906 5.12452 11.3705C5.00195 12.8707 4.99935 14.8117 4.99935 17.667V22.3337C4.99935 25.189 5.00195 27.1298 5.12452 28.6302C5.24392 30.0917 5.46033 30.839 5.72597 31.3603C6.36513 32.6147 7.385 33.6345 8.63942 34.2737C9.16075 34.5393 9.90808 34.7558 11.3695 34.8752C12.8698 34.9977 14.8108 35.0003 17.666 35.0003H22.3327C25.188 35.0003 27.1289 34.9977 28.6292 34.8752C30.0907 34.7558 30.838 34.5393 31.3594 34.2737C32.6137 33.6345 33.6335 32.6147 34.2727 31.3603C34.5383 30.839 34.7549 30.0917 34.8742 28.6302C34.9967 27.1298 34.9994 25.189 34.9994 22.3337V17.667C34.9994 14.8117 34.9967 12.8707 34.8742 11.3705C34.7549 9.90906 34.5383 9.16173 34.2727 8.64039C33.6335 7.38598 32.6137 6.36611 31.3594 5.72694C30.838 5.46131 30.0907 5.24489 28.6292 5.12549C27.1289 5.00293 25.188 5.00033 22.3327 5.00033Z" fill="white"/>
</svg>
