<svg width="40" height="40" viewBox="0 0 40 40" fill="none" xmlns="http://www.w3.org/2000/svg">
<path fill-rule="evenodd" clip-rule="evenodd" d="M12.8232 5.43093C17.2994 4.716 22.7006 4.716 27.1768 5.43093C31.2438 6.0805 34.3952 9.29854 34.998 12.7648C35.7278 16.961 35.7278 22.0389 34.998 26.2351C34.3952 29.7014 31.2438 32.9195 27.177 33.5691C22.7006 34.284 17.2994 34.284 12.8232 33.5691C8.75629 32.9195 5.6049 29.7014 5.00193 26.2351C4.27204 22.0389 4.27211 16.961 5.00195 12.7649C5.60484 9.29852 8.75627 6.0805 12.8232 5.43093ZM27.6615 1.5747C22.8638 0.808433 17.1363 0.808433 12.3386 1.5747C7.13157 2.40636 2.55482 6.59443 1.61196 12.0154C0.796057 16.7065 0.795967 22.2935 1.61197 26.9845C2.55491 32.4056 7.13154 36.5936 12.3386 37.4253C17.1363 38.1916 22.8638 38.1916 27.6615 37.4253C32.8685 36.5936 37.4452 32.4056 38.3882 26.9845C39.2039 22.2935 39.2039 16.7065 38.3882 12.0154C37.4452 6.59441 32.8685 2.40636 27.6615 1.5747ZM17.5036 10.0902C16.9735 9.69183 16.292 9.65469 15.7304 9.99357C15.1688 10.3324 14.8182 10.9923 14.8182 11.7105V27.2894C14.8182 28.0076 15.1688 28.6676 15.7304 29.0064C16.292 29.3453 16.9735 29.3081 17.5036 28.9098L27.8672 21.1204C28.3477 20.7591 28.6363 20.1512 28.6363 19.5C28.6363 18.8488 28.3477 18.2408 27.8672 17.8796L17.5036 10.0902ZM23.7951 19.5L18.2727 23.6508V15.3492L23.7951 19.5Z" fill="white"/>
</svg>
